#!OML:ASF H:\Not Pregnant\Project 1\Capture day 1\Session 1\non-pregnant.ASF
:FULLY-SPECIFIED
:DEGREES
358
root 5.11893 9.2214 11.4145 -18.748 -24.2576 0.385925
lowerback 11.7222 1.21211 1.43602
upperback 7.52446 1.65274 -2.23278
thorax 1.4112 0.895949 -3.29823
lowerneck 17.9103 -8.97241 -30.3877
upperneck -3.93153 -18.5216 42.0236
head 3.66695 -11.5521 21.3186
rclavicle -7.57867e-015 1.74931e-014
rhumerus -40.6636 7.83806 -75.6599
rradius 93.4829
rwrist 18.9177
rhand -5.58028 -13.3339
rfingers 7.12502
rthumb 20.2358 -42.2998
lclavicle -7.57867e-015 1.74931e-014
lhumerus -45.6314 -15.2995 66.1898
lradius 102.146
lwrist 5.49164
lhand -1.40889 -4.00226
lfingers 7.12502
lthumb 24.2402 24.4855
rfemur -72.9832 -3.00746 21.741
rtibia 103.153
rfoot -11.3073 11.089
rtoes -18.5486
lfemur -71.6366 21.553 -21.66
ltibia 103.541
lfoot -13.697 -9.70242
ltoes -21.0408
359
root 5.12321 9.22322 11.4143 -19.0678 -24.2921 0.298589
lowerback 11.4998 1.25154 1.59472
upperback 7.54942 1.72058 -2.23388
thorax 1.56796 0.938653 -3.3891
lowerneck 18.0465 -8.96566 -30.3902
upperneck -3.49082 -18.6632 41.8955
head 3.79702 -11.6219 21.2389
rclavicle -7.47679e-014 -7.95139e-016
rhumerus -40.4343 7.86856 -75.6393
rradius 93.1212
rwrist 18.7806
rhand -5.25023 -13.2847
rfingers 7.12502
rthumb 20.553 -42.2167
lclavicle -7.47679e-014 -7.95139e-016
lhumerus -45.0351 -15.3472 66.4007
lradius 101.754
lwrist 4.99901
lhand -0.69377 -3.43944
lfingers 7.12502
lthumb 24.9257 24.9551
rfemur -72.5007 -2.91451 21.7769
rtibia 103.075
rfoot -11.341 10.9851
rtoes -18.6058
lfemur -71.1769 21.6798 -21.4466
ltibia 103.504
lfoot -13.7594 -9.78493
ltoes -20.9766
360
root 5.12735 9.22487 11.4141 -19.3943 -24.3222 0.211967
lowerback 11.2909 1.29161 1.74901
upperback 7.57283 1.78813 -2.22975
thorax 1.71602 0.981055 -3.47194
lowerneck 18.1709 -8.95742 -30.3985
upperneck -3.0387 -18.8016 41.749
head 3.9291 -11.6875 21.1498
rclavicle 1.37534e-014 -1.03368e-014
rhumerus -40.2174 7.85414 -75.6139
rradius 92.7631
rwrist 18.7885
rhand -4.87437 -13.1815
rfingers 7.12502
rthumb 20.9141 -42.0741
lclavicle 1.37534e-014 -1.03368e-014
lhumerus -44.4354 -15.4198 66.6193
lradius 101.344
lwrist 4.53538
lhand 0.035254 -2.83926
lfingers 7.12502
lthumb 25.6241 25.4566
rfemur -72.0122 -2.8335 21.8132
rtibia 102.998
rfoot -11.3752 10.8883
rtoes -18.6609
lfemur -70.7089 21.7969 -21.2297
ltibia 103.467
lfoot -13.82 -9.86274
ltoes -20.9375
361
root 5.1311 9.22604 11.4138 -19.7296 -24.3429 0.127956
lowerback 11.0998 1.32986 1.88726
upperback 7.59432 1.8512 -2.21796
thorax 1.85175 1.02044 -3.53743
lowerneck 18.2779 -8.94803 -30.4131
upperneck -2.57016 -18.9362 41.5771
head 4.06415 -11.7473 21.0466
rclavicle 3.56818e-014 -2.46493e-014
rhumerus -40.0136 7.80321 -75.585
rradius 92.4143
rwrist 18.9114
rhand -4.46862 -13.0562
rfingers 7.12502
rthumb 21.3039 -41.9052
lclavicle 3.56818e-014 -2.46493e-014
lhumerus -43.8361 -15.51 66.8418
lradius 100.921
lwrist 4.1265
lhand 0.787269 -2.19225
lfingers 7.12502
lthumb 26.3442 25.998
rfemur -71.5187 -2.76849 21.8476
rtibia 102.924
rfoot -11.4117 10.7965
rtoes -18.7192
lfemur -70.2333 21.9002 -21.0121
ltibia 103.43
lfoot -13.8762 -9.93588
ltoes -20.9132
362
root 5.1344 9.22637 11.4133 -20.08 -24.3541 0.0469409
lowerback 10.9338 1.36595 2.01356
upperback 7.61545 1.90991 -2.20122
thorax 1.97294 1.05699 -3.59103
lowerneck 18.365 -8.9407 -30.425
upperneck -2.08409 -19.0683 41.3747
head 4.20145 -11.8014 20.9234
rclavicle 7.48549e-015 -3.26007e-014
rhumerus -39.825 7.71541 -75.5581
rradius 92.0803
rwrist 19.1125
rhand -4.04934 -12.9382
rfingers 7.12502
rthumb 21.7066 -41.7412
lclavicle 7.48549e-015 -3.26007e-014
lhumerus -43.2378 -15.6174 67.0597
lradius 100.494
lwrist 3.78842
lhand 1.58299 -1.49646
lfingers 7.12502
lthumb 27.1057 26.5775
rfemur -71.015 -2.71955 21.8763
rtibia 102.858
rfoot -11.4484 10.7171
rtoes -18.7446
lfemur -69.7442 21.9937 -20.792
ltibia 103.394
lfoot -13.9281 -10.0099
ltoes -20.8765
363
root 5.13727 9.22563 11.4124 -20.4474 -24.3559 -0.0282588
lowerback 10.7984 1.39847 2.1208
upperback 7.63586 1.96195 -2.17834
thorax 2.07548 1.08909 -3.62756
lowerneck 18.4209 -8.93598 -30.4388
upperneck -1.57207 -19.1991 41.1416
head 4.34669 -11.8494 20.7806
rclavicle -4.96201e-014 3.89618e-014
rhumerus -39.6467 7.59836 -75.534
rradius 91.7613
rwrist 19.3626
rhand -3.62955 -12.8476
rfingers 7.12502
rthumb 22.1097 -41.6035
lclavicle -4.96201e-014 3.89618e-014
lhumerus -42.6501 -15.7291 67.2737
lradius 100.074
lwrist 3.51175
lhand 2.41531 -0.748373
lfingers 7.12502
lthumb 27.9017 27.199
rfemur -70.5042 -2.68567 21.8971
rtibia 102.803
rfoot -11.4834 10.6509
rtoes -18.7213
lfemur -69.2426 22.0776 -20.572
ltibia 103.361
lfoot -13.9763 -10.084
ltoes -20.828
364
root 5.13969 9.22371 11.4112 -20.8325 -24.3519 -0.0977616
lowerback 10.6968 1.42878 2.21455
upperback 7.65577 2.00982 -2.15286
thorax 2.15844 1.11822 -3.65425
lowerneck 18.4403 -8.93732 -30.4471
upperneck -1.03208 -19.331 40.8782
head 4.50165 -11.8921 20.616
rclavicle -3.41475e-014 -3.18055e-015
rhumerus -39.4859 7.44767 -75.5164
rradius 91.4644
rwrist 19.6443
rhand -3.21085 -12.7832
rfingers 7.12502
rthumb 22.5116 -41.491
lclavicle -3.41475e-014 -3.18055e-015
lhumerus -42.0782 -15.8404 67.4757
lradius 99.6701
lwrist 3.28072
lhand 3.28647 0.039197
lfingers 7.12502
lthumb 28.7343 27.8483
rfemur -69.9856 -2.66181 21.911
rtibia 102.759
rfoot -11.5188 10.595
rtoes -18.6715
lfemur -68.7281 22.1579 -20.3506
ltibia 103.334
lfoot -14.0256 -10.1564
ltoes -20.7743
365
root 5.14164 9.22014 11.4096 -21.2378 -24.3451 -0.166156
lowerback 10.6399 1.45574 2.29536
upperback 7.67402 2.05226 -2.12069
thorax 2.21423 1.14348 -3.66753
lowerneck 18.4341 -8.93902 -30.4583
upperneck -0.474081 -19.4587 40.5949
head 4.66236 -11.9293 20.4412
rclavicle 3.84897e-014 -1.43125e-014
rhumerus -39.3396 7.2716 -75.5016
rradius 91.1861
rwrist 19.9502
rhand -2.78851 -12.7364
rfingers 7.12502
rthumb 22.9169 -41.3945
lclavicle 3.84897e-014 -1.43125e-014
lhumerus -41.5389 -15.9352 67.6702
lradius 99.2926
lwrist 3.05798
lhand 4.17921 0.846641
lfingers 7.12502
lthumb 29.5868 28.5079
rfemur -69.4564 -2.64431 21.9254
rtibia 102.726
rfoot -11.5534 10.5427
rtoes -18.6088
lfemur -68.2012 22.2401 -20.1212
ltibia 103.315
lfoot -14.0749 -10.2329
ltoes -20.7068
366
root 5.14329 9.21505 11.4074 -21.6595 -24.3383 -0.235453
lowerback 10.6209 1.4783 2.37173
upperback 7.69372 2.08864 -2.08557
thorax 2.25021 1.1651 -3.67587
lowerneck 18.3972 -8.9401 -30.4729
upperneck 0.100009 -19.5801 40.2994
head 4.82986 -11.9602 20.2614
rclavicle -3.09607e-014 4.37326e-014
rhumerus -39.204 7.07278 -75.4908
rradius 90.9282
rwrist 20.2812
rhand -2.35452 -12.6873
rfingers 7.12502
rthumb 23.3333 -41.2931
lclavicle -3.09607e-014 4.37326e-014
lhumerus -41.0329 -16.0042 67.8496
lradius 98.937
lwrist 2.79625
lhand 5.06327 1.63828
lfingers 7.12502
lthumb 30.4303 29.1468
rfemur -68.9196 -2.63114 21.9442
rtibia 102.701
rfoot -11.5893 10.4913
rtoes -18.5609
lfemur -67.6652 22.3244 -19.8823
ltibia 103.306
lfoot -14.1263 -10.3124
ltoes -20.6451
367
root 5.14467 9.20851 11.4049 -22.091 -24.3313 -0.30606
lowerback 10.6336 1.49669 2.44242
upperback 7.71355 2.11924 -2.04676
thorax 2.26827 1.18316 -3.6777
lowerneck 18.3333 -8.9432 -30.4909
upperneck 0.682827 -19.6983 39.9945
head 5.00346 -11.9873 20.0777
rclavicle -8.50798e-014 -3.18055e-015
rhumerus -39.0753 6.85145 -75.4813
rradius 90.6826
rwrist 20.6415
rhand -1.90356 -12.6255
rfingers 7.12502
rthumb 23.7659 -41.1758
lclavicle -8.50798e-014 -3.18055e-015
lhumerus -40.5712 -16.0401 68.0157
lradius 98.6016
lwrist 2.46118
lhand 5.90565 2.36881
lfingers 7.12502
lthumb 31.2334 29.7255
rfemur -68.3821 -2.62313 21.9689
rtibia 102.682
rfoot -11.6274 10.4384
rtoes -18.5418
lfemur -67.1288 22.4095 -19.6372
ltibia 103.306
lfoot -14.1844 -10.3899
ltoes -20.6141
368
root 5.14597 9.2007 11.4021 -22.5282 -24.3262 -0.37767
lowerback 10.6715 1.51215 2.51387
upperback 7.7358 2.14623 -2.00774
thorax 2.27503 1.19923 -3.68025
lowerneck 18.2455 -8.94885 -30.5128
upperneck 1.26408 -19.8138 39.6925
head 5.18222 -12.0122 19.8975
rclavicle 5.39452e-014 -2.62396e-014
rhumerus -38.9478 6.60827 -75.4715
rradius 90.4483
rwrist 21.0301
rhand -1.43354 -12.544
rfingers 7.12502
rthumb 24.2166 -41.035
lclavicle 5.39452e-014 -2.62396e-014
lhumerus -40.1484 -16.045 68.1616
lradius 98.2781
lwrist 2.04798
lhand 6.68911 3.00178
lfingers 7.12502
lthumb 31.9797 30.2118
rfemur -67.8481 -2.61977 21.9999
rtibia 102.669
rfoot -11.6657 10.3848
rtoes -18.5416
lfemur -66.5967 22.4958 -19.3872
ltibia 103.315
lfoot -14.2395 -10.4708
ltoes -20.5928
369
root 5.14725 9.19173 11.3991 -22.9646 -24.3223 -0.449562
lowerback 10.7248 1.52503 2.58735
upperback 7.75979 2.17017 -1.97103
thorax 2.27521 1.2138 -3.68663
lowerneck 18.133 -8.95944 -30.526
upperneck 1.84279 -19.9259 39.3888
head 5.36326 -12.0338 19.7151
rclavicle -5.93124e-014 1.19271e-014
rhumerus -38.823 6.34913 -75.4639
rradius 90.2251
rwrist 21.4459
rhand -0.946069 -12.4574
rfingers 7.12502
rthumb 24.6839 -40.8852
lclavicle -5.93124e-014 1.19271e-014
lhumerus -39.762 -16.0253 68.2828
lradius 97.9614
lwrist 1.5808
lhand 7.39432 3.51807
lfingers 7.12502
lthumb 32.6509 30.5913
rfemur -67.3261 -2.62331 22.0374
rtibia 102.66
rfoot -11.7031 10.3299
rtoes -18.5772
lfemur -66.0763 22.5809 -19.1364
ltibia 103.332
lfoot -14.2959 -10.5519
ltoes -20.5867
370
root 5.14861 9.18184 11.3959 -23.4001 -24.3211 -0.52242
lowerback 10.7911 1.53626 2.66853
upperback 7.78528 2.19278 -1.939
thorax 2.27052 1.22805 -3.70257
lowerneck 18.0117 -8.97175 -30.529
upperneck 2.40463 -20.0316 39.0954
head 5.54004 -12.0531 19.5392
rclavicle 4.90004e-014 -1.74931e-014
rhumerus -38.7038 6.08157 -75.4575
rradius 90.0132
rwrist 21.8782
rhand -0.445511 -12.3708
rfingers 7.12502
rthumb 25.1636 -40.7321
lclavicle 4.90004e-014 -1.74931e-014
lhumerus -39.4145 -15.9897 68.376
lradius 97.6565
lwrist 1.12061
lhand 8.02876 3.91351
lfingers 7.12502
lthumb 33.2544 30.8597
rfemur -66.8129 -2.63083 22.0792
rtibia 102.655
rfoot -11.7378 10.2793
rtoes -18.6266
lfemur -65.5656 22.6667 -18.8834
ltibia 103.355
lfoot -14.349 -10.6349
ltoes -20.5922
